<?xml version="1.0" standalone="no"?>
<!DOCTYPE svg PUBLIC "-//W3C//DTD SVG 20010904//EN"
 "http://www.w3.org/TR/2001/REC-SVG-20010904/DTD/svg10.dtd">
<svg version="1.0" xmlns="http://www.w3.org/2000/svg"
 width="512.000000pt" height="512.000000pt" viewBox="0 0 512.000000 512.000000"
 preserveAspectRatio="xMidYMid meet">

<g transform="translate(0.000000,512.000000) scale(0.100000,-0.100000)"
fill="#000000" stroke="none">
<path d="M1950 4685 c-8 -2 -49 -8 -90 -15 -614 -95 -1146 -547 -1344 -1141
-67 -204 -80 -287 -81 -534 0 -190 3 -235 23 -332 93 -460 356 -848 747 -1106
570 -375 1324 -367 1888 19 43 30 82 54 85 54 4 0 284 -277 622 -615 471 -470
626 -619 660 -634 180 -81 360 99 279 279 -15 34 -164 189 -634 660 -338 338
-615 618 -615 621 0 3 29 50 65 103 332 496 376 1142 115 1681 -233 482 -676
826 -1206 936 -75 15 -148 21 -299 24 -110 2 -207 2 -215 0z m413 -440 c241
-42 468 -159 651 -335 260 -250 396 -568 396 -925 0 -486 -268 -921 -703
-1140 -185 -94 -361 -135 -572 -135 -336 0 -640 122 -883 354 -644 615 -483
1668 317 2070 125 64 311 116 461 130 71 6 244 -3 333 -19z"/>
</g>
</svg>
